<?xml version="1.0" encoding="UTF-8"?>
<!DOCTYPE svg PUBLIC "-//W3C//DTD SVG 1.1//EN" "http://www.w3.org/Graphics/SVG/1.1/DTD/svg11.dtd">
<!-- Creator: CorelDRAW 2020 (64-Bit) -->
<svg xmlns="http://www.w3.org/2000/svg" xml:space="preserve" width="47.8568mm" height="24.4445mm" version="1.1" style="shape-rendering:geometricPrecision; text-rendering:geometricPrecision; image-rendering:optimizeQuality; fill-rule:evenodd; clip-rule:evenodd"
viewBox="0 0 4785.68 2444.45"
 xmlns:xlink="http://www.w3.org/1999/xlink"
 xmlns:xodm="http://www.corel.com/coreldraw/odm/2003">
 <defs>
  <style type="text/css">
   <![CDATA[
    .fil0 {fill:#5A5655}
   ]]>
  </style>
 </defs>
 <g id="Capa_x0020_1">
  <metadata id="CorelCorpID_0Corel-Layer"/>
  <g id="_2345364511424">
   <path class="fil0" d="M929.89 2439.99c223.89,1.66 454.32,0.06 678.27,0.26 132.59,-0.83 329.29,2.46 526.44,-17.47 85.56,-8.65 217.71,-86.08 288.85,-154.48 102.55,-98.62 226.17,-255.52 205.18,-498.19 -25.43,-359.94 -70.39,-499.75 -408.63,-598.04l0.16 -50.88c132.4,-29.77 260,-179.15 283.03,-501.16 49.95,-470.79 -431.1,-618.77 -575.26,-618.77l-998.04 0 -17.51 0 0 63.21 17.51 0 0 2312.33 -17.51 0 0 63.21 17.51 -0.02zm402.16 -2136.23l415.1 0c191.49,0 348.16,156.68 348.16,348.16l0 0.01c0,191.48 -156.68,347.89 -348.16,348.16l-413.74 0.61 -0.68 -348.77 0 -0.01 -0.68 -348.16zm0.73 972.28l483 0c222.81,0 405.11,200.27 405.11,445.03l0 0.01c0,244.76 -182.31,444.69 -405.11,445.03l-481.42 0.78 -0.79 -445.81 0 -0.01 -0.79 -445.03z"/>
   <path class="fil0" d="M2858.26 408.35c386.12,-92.88 332.56,-104.47 762.07,-95.49l-8.71 1949.17 -60.36 0.19 0.16 177.96 522.85 -0.08 -0.5 -178.07 -49.83 0 -1.18 -64.97c-1.01,-272.31 -23.34,-1733.08 11.54,-1880.2 376.32,-13.46 332.57,2.09 701.96,91.49 16.73,4.05 40.18,5.6 48.66,-20.11l0.76 -388.24 -1992.29 2.65 0.84 384.51c11.86,23.97 51.9,21.12 64.03,21.19z"/>
   <polygon class="fil0" points="-0,318.95 62.19,318.95 62.19,2166.46 -0,2166.46 -0,2439.94 528.37,2444.45 528.37,2166.46 466.12,2166.46 466.15,318.95 528.37,318.95 528.37,2.78 466.15,2.78 -0,2.78 "/>
  </g>
 </g>
</svg>
