<?xml version="1.0" encoding="UTF-8"?>
<!DOCTYPE svg PUBLIC "-//W3C//DTD SVG 1.1//EN" "http://www.w3.org/Graphics/SVG/1.1/DTD/svg11.dtd">
<!-- Creator: CorelDRAW 2020 (64-Bit) -->
<svg xmlns="http://www.w3.org/2000/svg" xml:space="preserve" width="57.189mm" height="21.1664mm" version="1.1" style="shape-rendering:geometricPrecision; text-rendering:geometricPrecision; image-rendering:optimizeQuality; fill-rule:evenodd; clip-rule:evenodd"
viewBox="0 0 5637.26 2086.42"
 xmlns:xlink="http://www.w3.org/1999/xlink"
 xmlns:xodm="http://www.corel.com/coreldraw/odm/2003">
 <defs>
  <style type="text/css">
   <![CDATA[
    .fil0 {fill:white}
    .fil1 {fill:white;fill-rule:nonzero}
   ]]>
  </style>
 </defs>
 <g id="Capa_x0020_1">
  <metadata id="CorelCorpID_0Corel-Layer"/>
  <g id="_2757180175200">
   <path class="fil0" d="M1043.22 0c576.16,0 1043.22,467.06 1043.22,1043.21 0,576.16 -467.07,1043.21 -1043.22,1043.21 -576.16,0 -1043.22,-467.06 -1043.22,-1043.21 0,-576.16 467.07,-1043.21 1043.22,-1043.21zm-759.26 1417.56l0 -748.71 151.62 0 0 748.71 -151.62 0zm295.75 -748.71l299.41 0c59.43,0 103.52,2.43 132.63,7.31 29.28,5.06 55.25,15.34 78.26,30.85 23,15.68 42.17,36.42 57.51,62.39 15.34,25.97 23.01,55.25 23.01,87.49 0,34.86 -9.41,67.1 -28.23,96.2 -18.83,29.29 -44.45,51.07 -76.69,65.71 45.49,13.42 80.35,36.08 104.92,68.14 24.4,32.07 36.6,69.71 36.6,113.11 0,34.16 -7.85,67.27 -23.71,99.51 -15.86,32.24 -37.47,58.04 -65.01,77.38 -27.35,19.17 -61.16,31.03 -101.43,35.56 -25.1,2.61 -85.92,4.36 -182.29,5.06l-254.98 0 0 -748.71zm151.62 124.43l0 172.54 99 0c58.73,0 95.33,-0.87 109.62,-2.61 25.79,-2.97 46.18,-11.85 61,-26.66 14.82,-14.82 22.13,-34.17 22.13,-58.21 0,-23.18 -6.45,-41.83 -19.17,-56.29 -12.72,-14.47 -31.71,-23.18 -56.81,-26.14 -14.99,-1.74 -58.04,-2.62 -128.97,-2.62l-86.79 0zm0 296.98l0 200.77 140.12 0c54.38,0 89.06,-1.57 103.7,-4.53 22.48,-4.18 40.78,-14.12 54.9,-29.98 14.13,-16.03 21.26,-37.12 21.26,-63.79 0,-22.65 -5.4,-41.65 -16.37,-57.34 -10.81,-15.68 -26.67,-27.19 -47.24,-34.33 -20.56,-7.15 -65.35,-10.8 -134.2,-10.8l-122.17 0zm771.89 327.3l0 -622.18 -221.68 0 0 -126.53 593.95 0 0 126.53 -220.64 0 0 622.18 -151.62 0z"/>
   <path class="fil1" d="M2241.09 1417.57l0 -748.71 227.09 0 134.2 510.64 132.62 -510.64 227.61 0 0 748.71 -140.12 0 -0.52 -589.41 -147.61 589.41 -145.7 0 -146.92 -589.41 -0.52 589.41 -140.12 0zm899.49 0l0 -748.71 554.21 0 0 126.53 -402.59 0 0 166.26 374.36 0 0 126.53 -374.36 0 0 202.86 417.23 0 0 126.53 -568.85 0zm723.82 -748.71l275.72 0c62.22,0 109.62,4.7 142.21,14.28 43.75,12.9 81.39,35.91 112.58,69.02 31.38,32.93 55.08,73.37 71.47,121.29 16.21,47.76 24.4,106.84 24.4,176.9 0,61.7 -7.67,114.68 -23.01,159.29 -18.65,54.55 -45.31,98.64 -79.99,132.28 -26.14,25.62 -61.53,45.48 -105.97,59.77 -33.29,10.64 -77.73,15.86 -133.5,15.86l-283.91 0 0 -748.71zm151.62 126.53l0 495.65 112.41 0c42,0 72.32,-2.44 90.97,-7.15 24.57,-6.1 44.79,-16.56 60.83,-31.2 16.21,-14.64 29.28,-38.69 39.39,-72.15 10.28,-33.47 15.33,-79.3 15.33,-137.16 0,-57.86 -5.05,-102.13 -15.33,-133.15 -10.11,-31.02 -24.41,-55.07 -42.7,-72.5 -18.3,-17.25 -41.48,-29.11 -69.71,-35.2 -20.92,-4.71 -62.22,-7.15 -123.57,-7.15l-67.62 0zm624.66 622.18l0 -748.71 151.62 0 0 748.71 -151.62 0zm996.57 0l-163.31 0 -64.66 -170.45 -300.28 0 -62.22 170.45 -160.34 0 290.7 -748.71 160.16 0 299.95 748.71zm-277.11 -296.98l-104.05 -277.11 -101.08 277.11 205.13 0z"/>
  </g>
 </g>
</svg>
