<?xml version="1.0" encoding="UTF-8"?>
<!DOCTYPE svg PUBLIC "-//W3C//DTD SVG 1.1//EN" "http://www.w3.org/Graphics/SVG/1.1/DTD/svg11.dtd">
<!-- Creator: CorelDRAW 2020 (64-Bit) -->
<svg xmlns="http://www.w3.org/2000/svg" xml:space="preserve" width="29.9541mm" height="24.6643mm" version="1.1" style="shape-rendering:geometricPrecision; text-rendering:geometricPrecision; image-rendering:optimizeQuality; fill-rule:evenodd; clip-rule:evenodd"
viewBox="0 0 3136.81 2582.86"
 xmlns:xlink="http://www.w3.org/1999/xlink"
 xmlns:xodm="http://www.corel.com/coreldraw/odm/2003">
 <defs>
  <style type="text/css">
   <![CDATA[
    .fil0 {fill:white}
   ]]>
  </style>
 </defs>
 <g id="Capa_x0020_1">
  <metadata id="CorelCorpID_0Corel-Layer"/>
  <path class="fil0" d="M2849.73 358.8c89.9,-73 183.25,-184.37 211.1,-301.07 -29.82,7.57 -349.35,169.63 -414.67,142.69 -0.26,-0.12 -340.74,-354.97 -780.94,-120.05 -286.64,152.96 -347.16,413.75 -327.97,717.35 -438.91,0.68 -931.96,-247.07 -1221.92,-547.88 -33.13,-34.38 -78.38,-96.07 -114.57,-124.28 -83.6,130.59 -108.51,314.82 -66.42,492.53 53.94,227.7 210.26,312.41 244.92,367.73 -110.06,-2.84 -237.2,-66.46 -272.67,-64.81 16.76,302.93 173.12,520 445.15,613.81l46.23 20.72c-23.68,13.38 -54.01,19.89 -122.4,22.83 -46.71,2.01 -92.4,-5.26 -133.99,-10.11 8.49,117.95 155,268.87 215.15,313.65 134.55,100.13 182.29,102.8 375.84,142.11 -84.59,47.53 -187.25,151.36 -387.03,207.68 -226.74,63.92 -297.21,52.74 -545.52,61.67 28.71,33.75 148.61,92.51 203.99,117.64 1206.32,547.47 2644.35,-258.53 2624.75,-1773.99 68.22,-32.55 274.94,-226.72 308.08,-317.73 -89.59,17.69 -187.42,73.68 -329.77,82.68l42.68 -43.17z"/>
 </g>
</svg>
