<?xml version="1.0" encoding="UTF-8"?>
<!DOCTYPE svg PUBLIC "-//W3C//DTD SVG 1.1//EN" "http://www.w3.org/Graphics/SVG/1.1/DTD/svg11.dtd">
<!-- Creator: CorelDRAW 2020 (64-Bit) -->
<svg xmlns="http://www.w3.org/2000/svg" xml:space="preserve" width="29.9541mm" height="24.6643mm" version="1.1" style="shape-rendering:geometricPrecision; text-rendering:geometricPrecision; image-rendering:optimizeQuality; fill-rule:evenodd; clip-rule:evenodd"
viewBox="0 0 1982.56 1632.45"
 xmlns:xlink="http://www.w3.org/1999/xlink"
 xmlns:xodm="http://www.corel.com/coreldraw/odm/2003">
 <defs>
  <style type="text/css">
   <![CDATA[
    .fil0 {fill:#7CCCFF}
   ]]>
  </style>
 </defs>
 <g id="Capa_x0020_1">
  <metadata id="CorelCorpID_0Corel-Layer"/>
  <path class="fil0" d="M1801.12 226.78c56.82,-46.14 115.82,-116.53 133.42,-190.29 -18.85,4.79 -220.8,107.21 -262.09,90.19 -0.17,-0.07 -215.36,-224.35 -493.58,-75.88 -181.17,96.67 -219.42,261.5 -207.29,453.39 -277.4,0.43 -589.03,-156.15 -772.29,-346.28 -20.94,-21.73 -49.54,-60.72 -72.41,-78.55 -52.84,82.53 -68.58,198.98 -41.98,311.3 34.09,143.92 132.89,197.45 154.8,232.41 -69.56,-1.79 -149.92,-42 -172.34,-40.96 10.59,191.46 109.42,328.66 281.35,387.95l29.22 13.1c-14.96,8.46 -34.14,12.57 -77.36,14.43 -29.52,1.27 -58.4,-3.32 -84.69,-6.39 5.37,74.55 97.96,169.93 135.98,198.24 85.04,63.29 115.21,64.98 237.54,89.82 -53.47,30.04 -118.35,95.67 -244.61,131.26 -143.31,40.4 -187.84,33.33 -344.79,38.98 18.15,21.33 93.93,58.47 128.93,74.35 762.43,346.02 1671.31,-163.4 1658.92,-1121.22 43.11,-20.57 173.77,-143.29 194.71,-200.82 -56.62,11.18 -118.45,46.57 -208.42,52.25l26.98 -27.28z"/>
 </g>
</svg>
