<?xml version="1.0" encoding="UTF-8"?>
<!DOCTYPE svg PUBLIC "-//W3C//DTD SVG 1.1//EN" "http://www.w3.org/Graphics/SVG/1.1/DTD/svg11.dtd">
<!-- Creator: CorelDRAW 2020 (64-Bit) -->
<svg xmlns="http://www.w3.org/2000/svg" xml:space="preserve" width="30.2951mm" height="21.2704mm" version="1.1" style="shape-rendering:geometricPrecision; text-rendering:geometricPrecision; image-rendering:optimizeQuality; fill-rule:evenodd; clip-rule:evenodd"
viewBox="0 0 973.84 683.74"
 xmlns:xlink="http://www.w3.org/1999/xlink"
 xmlns:xodm="http://www.corel.com/coreldraw/odm/2003">
 <defs>
  <style type="text/css">
   <![CDATA[
    .fil0 {fill:#F07160}
    .fil1 {fill:#FDFEFE}
   ]]>
  </style>
 </defs>
 <g id="Capa_x0020_1">
  <metadata id="CorelCorpID_0Corel-Layer"/>
  <g id="_2345421337776">
   <path class="fil0" d="M390.34 197.49l190.25 108.55c18.02,9.97 44.98,23.68 60.74,35.8 -6.61,6.83 -236.93,140.5 -251.71,145.12l0.72 -289.47zm-388.9 205.24c7.47,142.12 0.04,251.36 147.68,267.26 153.29,16.51 437.18,17.49 601.63,6.45 162.31,-10.91 203.17,-20.68 217.67,-195.47 7.22,-87.09 12.06,-308.09 -18.23,-385.38 -20.28,-51.73 -60.27,-73.66 -125.03,-81.16 -119.4,-13.83 -275.12,-16.43 -398.65,-13.15 -65.81,1.74 -135.84,2.32 -201.49,6.81 -157.56,10.77 -204.58,16.71 -218.8,194.97 -5.09,63.88 -8.18,134.79 -4.77,199.69z"/>
   <path class="fil1" d="M389.62 486.96c14.78,-4.62 245.1,-138.29 251.71,-145.12 -15.76,-12.12 -42.72,-25.84 -60.74,-35.8l-190.25 -108.55 -0.72 289.47z"/>
  </g>
 </g>
</svg>
